<svg width="64" height="64" viewBox="0 0 64 64" fill="none" xmlns="http://www.w3.org/2000/svg">
<path d="M49.7853 5.33334H44.7186C38.9053 5.33334 35.8386 8.40001 35.8386 14.2133V19.28C35.8386 25.0933 38.9053 28.16 44.7186 28.16H49.7853C55.5986 28.16 58.6653 25.0933 58.6653 19.28V14.2133C58.6653 8.40001 55.5986 5.33334 49.7853 5.33334Z" fill="#0DB14B"/>
<path d="M19.3066 35.8139H14.2399C8.39992 35.8139 5.33325 38.8805 5.33325 44.6939V49.7605C5.33325 55.6005 8.39992 58.6672 14.2133 58.6672H19.2799C25.0933 58.6672 28.1599 55.6005 28.1599 49.7872V44.7205C28.1866 38.8805 25.1199 35.8139 19.3066 35.8139Z" fill="#0DB14B"/>
<path d="M16.7733 28.2133C23.0914 28.2133 28.2133 23.0915 28.2133 16.7733C28.2133 10.4552 23.0914 5.33334 16.7733 5.33334C10.4551 5.33334 5.33325 10.4552 5.33325 16.7733C5.33325 23.0915 10.4551 28.2133 16.7733 28.2133Z" fill="#F44336"/>
<path d="M47.2264 58.6664C53.5445 58.6664 58.6664 53.5445 58.6664 47.2264C58.6664 40.9083 53.5445 35.7864 47.2264 35.7864C40.9082 35.7864 35.7864 40.9083 35.7864 47.2264C35.7864 53.5445 40.9082 58.6664 47.2264 58.6664Z" fill="#F44336"/>
</svg>
