<svg width="64" height="64" viewBox="0 0 64 64" fill="none" xmlns="http://www.w3.org/2000/svg">
<path d="M3.55556 19.5555C0 19.5555 0 23.1111 0 23.1111V60.4444C0 60.4444 0 64 3.55556 64H60.4444C64 64 64 60.4444 64 60.4444V23.1111C64 23.1111 64 19.5555 60.4444 19.5555H3.55556Z" fill="#5C913B"/>
<path d="M3.55556 10.6667C0 10.6667 0 14.2222 0 14.2222V49.7778C0 49.7778 0 53.3333 3.55556 53.3333H60.4444C64 53.3333 64 49.7778 64 49.7778V14.2222C64 14.2222 64 10.6667 60.4444 10.6667H3.55556Z" fill="#A7D28B"/>
<path d="M44.4445 43.5556C50.8264 43.5556 56 38.382 56 32C56 25.6181 50.8264 20.4445 44.4445 20.4445C38.0625 20.4445 32.8889 25.6181 32.8889 32C32.8889 38.382 38.0625 43.5556 44.4445 43.5556Z" fill="#77B255"/>
<path d="M58.6667 50.6667H5.33341C3.86319 50.6667 2.66675 49.4702 2.66675 48V16C2.66675 14.5298 3.86319 13.3333 5.33341 13.3333H58.6667C60.137 13.3333 61.3334 14.5298 61.3334 16V48C61.3334 49.4702 60.137 50.6667 58.6667 50.6667ZM5.33341 15.1111C5.09767 15.1111 4.87157 15.2048 4.70488 15.3715C4.53818 15.5382 4.44453 15.7643 4.44453 16V48C4.44453 48.4889 4.84453 48.8889 5.33341 48.8889H58.6667C59.1556 48.8889 59.5556 48.4889 59.5556 48V16C59.5556 15.7643 59.462 15.5382 59.2953 15.3715C59.1286 15.2048 58.9025 15.1111 58.6667 15.1111H5.33341Z" fill="#5C913B"/>
<path d="M24.8889 10.6667H39.1111V53.4435H24.8889V10.6667Z" fill="#FFE8B6"/>
<path d="M24.8889 53.3333H39.1111V64H24.8889V53.3333Z" fill="#FFAC33"/>
<path d="M20.9956 35.5964C20.9956 30.3004 11.2303 30.6453 11.2303 27.4471C11.2303 25.8987 12.7112 25.1431 14.4285 25.1431C17.3174 25.1431 17.8312 26.9991 19.1396 26.9991C20.0659 26.9991 20.5121 26.416 20.5121 25.7618C20.5121 24.24 18.2081 23.0915 15.9983 22.6933V21.2267C15.9983 20.7872 15.8237 20.3658 15.513 20.0551C15.2023 19.7443 14.7809 19.5698 14.3414 19.5698C13.902 19.5698 13.4805 19.7443 13.1698 20.0551C12.8591 20.3658 12.6845 20.7872 12.6845 21.2267V22.7431C10.2774 23.2942 8.20275 24.9653 8.20275 27.6871C8.20275 32.7751 17.9681 32.5689 17.9681 36.1458C17.9681 37.3813 16.6276 38.6186 14.4268 38.6186C11.1254 38.6186 10.025 36.384 8.68631 36.384C8.03209 36.384 7.44897 36.9333 7.44897 37.7618C7.44897 39.0791 9.65342 40.6613 12.6881 41.1058L12.6863 41.1129V42.7733C12.7061 43.1995 12.8892 43.6016 13.1978 43.8962C13.5064 44.1908 13.9166 44.3552 14.3432 44.3552C14.7698 44.3552 15.18 44.1908 15.4886 43.8962C15.7971 43.6016 15.9803 43.1995 16.0001 42.7733V41.1129C16.0001 41.0951 15.9912 41.0791 15.9894 41.0631C18.7183 40.5529 20.9956 38.7769 20.9956 35.5964Z" fill="#5C913B"/>
</svg>
