<svg width="64" height="64" viewBox="0 0 64 64" fill="none" xmlns="http://www.w3.org/2000/svg">
<path d="M53.3334 59.4286H10.6668C8.99057 59.4286 7.61914 58.0571 7.61914 56.3809V25.9048H56.381V56.3809C56.381 58.0571 55.0096 59.4286 53.3334 59.4286Z" fill="#D32F2F"/>
<path d="M59.4287 25.9048H4.57153V16.7619C4.57153 15.0857 5.94296 13.7143 7.61915 13.7143H56.3811C58.0572 13.7143 59.4287 15.0857 59.4287 16.7619V25.9048Z" fill="#F44336"/>
<path d="M28.9524 25.9048H35.0476V59.4286H28.9524V25.9048ZM38.0952 4.57144L28.9524 13.7143H35.0476L44.1905 4.57144H38.0952Z" fill="#FF8F00"/>
<path d="M28.9524 25.9048H35.0477V13.7143L25.9048 4.57144H19.8096L28.9524 13.7143V25.9048Z" fill="#FFC107"/>
</svg>
