<svg width="64" height="64" viewBox="0 0 64 64" fill="none" xmlns="http://www.w3.org/2000/svg">
<path d="M58.0588 23.4455L33.5529 7.55787C33.1231 7.27949 32.5723 7.27174 32.1348 7.53737L5.97463 23.425C5.57812 23.6662 5.33398 24.0989 5.33398 24.5647V57.9788C5.33398 58.7152 5.93163 59.3129 6.66803 59.3129H57.3341C58.0705 59.3129 58.6681 58.7152 58.6681 57.9788V24.5647C58.6681 24.1125 58.4396 23.6916 58.0588 23.4455Z" fill="#48CFAD"/>
<path d="M63.2851 20.797L32.6173 4.79703C32.2305 4.5959 31.7715 4.5959 31.3849 4.79703L0.716647 20.797C0.277134 21.0265 0 21.4825 0 21.9796V27.3126C0 27.7785 0.244008 28.2111 0.64252 28.4523C1.04103 28.6945 1.53705 28.71 1.95119 28.4953L32 12.8167L62.0507 28.4954C62.2441 28.595 62.457 28.6458 62.668 28.6458C62.9082 28.6458 63.1465 28.5813 63.3594 28.4524C63.7579 28.2111 64 27.7785 64 27.3127V21.9797C64 21.4825 63.7246 21.0265 63.2851 20.797Z" fill="#F0F2F5"/>
<path d="M52 59.3129H12C11.2636 59.3129 10.668 58.7152 10.668 57.9788V28.6888C10.668 27.9515 11.2637 27.3547 12 27.3547H52C52.7382 27.3547 53.3339 27.9514 53.3339 28.6888V57.9788C53.3339 58.7152 52.7382 59.3129 52 59.3129Z" fill="#434A54"/>
<path d="M52.0005 50.0193H44.0005V58.0193H52.0005V50.0193Z" fill="#FFCE54"/>
<path d="M52 59.3539H44C43.2636 59.3539 42.668 58.7562 42.668 58.0198V50.0198C42.668 49.2834 43.2637 48.6878 44 48.6878H52C52.7382 48.6878 53.3339 49.2835 53.3339 50.0198V58.0198C53.3339 58.7562 52.7382 59.3539 52 59.3539ZM45.3339 56.6878H50.668V51.3539H45.3339V56.6878Z" fill="#F6BB42"/>
<path d="M44.0004 50.0193H36.0002V58.0193H44.0004V50.0193Z" fill="#FFCE54"/>
<path d="M44 59.3539H35.9999C35.2636 59.3539 34.668 58.7562 34.668 58.0198V50.0198C34.668 49.2834 35.2637 48.6878 35.9999 48.6878H44C44.7382 48.6878 45.3339 49.2835 45.3339 50.0198V58.0198C45.3339 58.7562 44.7382 59.3539 44 59.3539ZM37.3339 56.6878H42.668V51.3539H37.3339V56.6878Z" fill="#F6BB42"/>
<path d="M48.0002 42.0203H40.0002V50.0203H48.0002V42.0203Z" fill="#FFCE54"/>
<path d="M48 51.3539H40C39.2636 51.3539 38.668 50.7562 38.668 50.0198V42.0198C38.668 41.2834 39.2637 40.6878 40 40.6878H48C48.7383 40.6878 49.3341 41.2835 49.3341 42.0198V50.0198C49.3341 50.7562 48.7383 51.3539 48 51.3539ZM41.334 48.6878H46.668V43.3537H41.334V48.6878Z" fill="#F6BB42"/>
<path d="M52.0005 34.0201H44.0005V42.0202H52.0005V34.0201Z" fill="#FFCE54"/>
<path d="M52 43.3537H44C43.2636 43.3537 42.668 42.7561 42.668 42.0198V34.0197C42.668 33.2844 43.2637 32.6888 44 32.6888H52C52.7382 32.6888 53.3339 33.2845 53.3339 34.0197V42.0198C53.3339 42.7561 52.7382 43.3537 52 43.3537ZM45.3339 40.6878H50.668V35.3537H45.3339V40.6878Z" fill="#F6BB42"/>
<path d="M53.3344 42.0203H48.0005V50.0203H53.3344V42.0203Z" fill="#FFCE54"/>
<path d="M53.3339 48.6878H49.3341V43.3537H53.3339V40.6878H48C47.2636 40.6878 46.668 41.2835 46.668 42.0198V50.0198C46.668 50.7562 47.2637 51.3539 48 51.3539H53.3339V48.6878Z" fill="#F6BB42"/>
<path d="M19.9993 50.0193H11.9993V58.0193H19.9993V50.0193Z" fill="#FFCE54"/>
<path d="M10.668 58.0198V50.0198C10.668 49.2834 11.2637 48.6878 12 48.6878H20C20.7383 48.6878 21.3339 49.2835 21.3339 50.0198V58.0198C21.3339 58.7562 20.7383 59.3539 20 59.3539H12C11.2636 59.3539 10.668 58.7562 10.668 58.0198ZM18.668 51.3539H13.3339V56.6878H18.668V51.3539Z" fill="#F6BB42"/>
<path d="M27.9995 50.0193H19.9995V58.0193H27.9995V50.0193Z" fill="#FFCE54"/>
<path d="M18.668 58.0198V50.0198C18.668 49.2834 19.2637 48.6878 20 48.6878H28C28.7383 48.6878 29.3341 49.2835 29.3341 50.0198V58.0198C29.3341 58.7562 28.7383 59.3539 28 59.3539H20C19.2636 59.3539 18.668 58.7562 18.668 58.0198ZM26.668 51.3539H21.3339V56.6878H26.668V51.3539Z" fill="#F6BB42"/>
<path d="M23.9995 42.0203H15.9995V50.0203H23.9995V42.0203Z" fill="#FFCE54"/>
<path d="M14.668 50.0198V42.0198C14.668 41.2834 15.2637 40.6878 16 40.6878H24C24.7383 40.6878 25.3339 41.2835 25.3339 42.0198V50.0198C25.3339 50.7562 24.7383 51.3539 24 51.3539H16C15.2636 51.3539 14.668 50.7562 14.668 50.0198ZM22.668 43.3537H17.3339V48.6878H22.668V43.3537Z" fill="#F6BB42"/>
<path d="M19.9993 34.0201H11.9993V42.0202H19.9993V34.0201Z" fill="#FFCE54"/>
<path d="M10.668 42.0198V34.0197C10.668 33.2844 11.2637 32.6888 12 32.6888H20C20.7383 32.6888 21.3339 33.2845 21.3339 34.0197V42.0198C21.3339 42.7561 20.7383 43.3537 20 43.3537H12C11.2636 43.3537 10.668 42.7561 10.668 42.0198ZM18.668 35.3537H13.3339V40.6878H18.668V35.3537Z" fill="#F6BB42"/>
<path d="M16 42.0203H10.668V50.0203H16V42.0203Z" fill="#FFCE54"/>
<path d="M10.668 48.6878H14.668V43.3537H10.668V40.6878H16C16.7383 40.6878 17.3339 41.2835 17.3339 42.0198V50.0198C17.3339 50.7562 16.7383 51.3539 16 51.3539H10.668V48.6878Z" fill="#F6BB42"/>
<path d="M60 59.3129H4.00001C3.26361 59.3129 2.66797 58.7152 2.66797 57.9788C2.66797 57.2424 3.26374 56.6448 4.00001 56.6448H60C60.7383 56.6448 61.3339 57.2424 61.3339 57.9788C61.3339 58.7152 60.7383 59.3129 60 59.3129Z" fill="#656D78"/>
<path d="M52 27.3547H12C11.2636 27.3547 10.668 27.9514 10.668 28.6888V34.0197H53.3339V28.6888C53.3339 27.9514 52.7382 27.3547 52 27.3547Z" fill="#E6E9ED"/>
<path d="M34.6192 34.0197H29.3829C28.6465 34.0197 28.0488 33.4251 28.0488 32.6888C28.0488 31.9505 28.6465 31.3547 29.3829 31.3547H34.6192C35.3556 31.3547 35.9531 31.9505 35.9531 32.6888C35.9531 33.4251 35.3556 34.0197 34.6192 34.0197Z" fill="#CCD1D9"/>
</svg>
