<svg width="64" height="64" viewBox="0 0 64 64" fill="none" xmlns="http://www.w3.org/2000/svg">
<path d="M4 15.8516C4 16.9578 4.43944 18.0187 5.22164 18.8009C6.00384 19.5831 7.06474 20.0226 8.17094 20.0226C9.27714 20.0226 10.338 19.5831 11.1202 18.8009C11.9024 18.0187 12.3419 16.9578 12.3419 15.8516C12.3419 14.7454 11.9024 13.6845 11.1202 12.9023C10.338 12.1201 9.27714 11.6807 8.17094 11.6807C7.06474 11.6807 6.00384 12.1201 5.22164 12.9023C4.43944 13.6845 4 14.7454 4 15.8516Z" fill="#F44336"/>
<path d="M4 31.4646C4 32.5708 4.43944 33.6317 5.22164 34.4139C6.00384 35.1961 7.06474 35.6356 8.17094 35.6356C9.27714 35.6356 10.338 35.1961 11.1202 34.4139C11.9024 33.6317 12.3419 32.5708 12.3419 31.4646C12.3419 30.3584 11.9024 29.2975 11.1202 28.5153C10.338 27.7331 9.27714 27.2937 8.17094 27.2937C7.06474 27.2937 6.00384 27.7331 5.22164 28.5153C4.43944 29.2975 4 30.3584 4 31.4646Z" fill="#F44336"/>
<path d="M4 48.1484C4 49.2546 4.43944 50.3155 5.22164 51.0977C6.00384 51.8799 7.06474 52.3193 8.17094 52.3193C9.27714 52.3193 10.338 51.8799 11.1202 51.0977C11.9024 50.3155 12.3419 49.2546 12.3419 48.1484C12.3419 47.0422 11.9024 45.9813 11.1202 45.1991C10.338 44.4169 9.27714 43.9774 8.17094 43.9774C7.06474 43.9774 6.00384 44.4169 5.22164 45.1991C4.43944 45.9813 4 47.0422 4 48.1484Z" fill="#F44336"/>
<path d="M57.0867 17.7181H21.988C20.9572 17.7181 20.1213 16.8823 20.1213 15.8514C20.1213 14.8206 20.9572 13.9847 21.988 13.9847H57.0867C58.1175 13.9847 58.9533 14.8206 58.9533 15.8514C58.9533 16.8823 58.1175 17.7181 57.0867 17.7181ZM57.0867 33.3315H21.988C20.9572 33.3315 20.1213 32.4957 20.1213 31.4648C20.1213 30.4339 20.9572 29.5981 21.988 29.5981H57.0867C58.1175 29.5981 58.9533 30.4339 58.9533 31.4648C58.9533 32.4956 58.1175 33.3315 57.0867 33.3315ZM58.1334 50.0149H23.0353C22.0045 50.0149 21.1686 49.1791 21.1686 48.1482C21.1686 47.1173 22.0045 46.2815 23.0353 46.2815H58.1334C59.1643 46.2815 60.0001 47.1173 60.0001 48.1482C60.0001 49.1791 59.1643 50.0149 58.1334 50.0149Z" fill="#0DB14B"/>
</svg>
